<?xml version="1.0" encoding="UTF-8"?>
<svg viewBox="0 0 1600 1200" xmlns="http://www.w3.org/2000/svg">
 <path d="m914.79 956c21.048 17.975 39.387 3.3453 48.857-20.455-11.526 7.8176-34.448 19.541-48.857 20.455z" fill-rule="evenodd" stroke="#000" stroke-width="3"/>
 <path d="m561.51 1025c22.55 16.05 39.528-0.1383 46.864-24.68-10.792 8.8028-32.592 22.5-46.864 24.68z" fill-rule="evenodd" stroke="#000" stroke-width="3"/>
 <path d="m800 521.43 95.714 4.2857 174.29-68.571s110.03-69.341 135.71-90c13.767-19.267 93.572-211.43 93.572-211.43 31.905-27.381 58.809-29.762 89.286-37.143l-41.428 245.71c11.19 5.4762 5.9523 15.238-10.714 25.714l49.286-14.286s148.32 66.284 147.14 80c-8.5465 18.025-47.995 43.927-81.428 50.714-41.784-3.9066-160.71-46.071-214.29-60.714" fill="none" stroke="#000" stroke-width="3"/>
 <path d="m1266.4 455.71-198.57 186.43" fill="none" stroke="#000" stroke-width="3"/>
 <path d="m926.97 581.76 660.27 303.95s-95.655 76.551-148.67 78.571c-8.5652 0.32638-405.71-131.43-405.71-131.43s-283.61-128.87-307.86-139.29" fill="none" stroke="#000" stroke-width="3"/>
 <path d="m967.86 804.29-197.86 70-32.857 18.571" fill="none" stroke="#000" stroke-width="3"/>
 <path d="m737.96 893.52c-55.772 24.632-115.03 48.081-179.39 61.602-19.582 0.56285-37.143 3.6511-55.714-0.83684-22.554-5.9883-39.3-14.754-58.824-28.319" fill="none" stroke="#000" stroke-width="3"/>
 <path d="m417.58 890.46c-10.982-16.522-15.398-45.166-1.1266-64.719 34.762-38.899 69.524-68.707 116.41-100.03 10.779-38.86 18.528-66.609 41.429-101.43l-263.28-117.32-276.45-158.12s-24.802-12.175-15.152-36.306c15.495-38.747 115.3-60.52 115.3-60.52 225.69 82.732 441.28 168.49 671.01 269.41" fill="none" stroke="#000" stroke-width="3"/>
 <path d="m1144.8 406.65-73.969-49.755c-9.221-6.2482-19.106-9.0476-20.245-21.357 31.905-31.401 55.728-31.486 89.653-40.664l84.979 26.97" fill="none" stroke="#000" stroke-width="3"/>
 <path d="m355.44 527.95c2.8571 5.7143 163.98 203.41 163.98 203.41" fill="none" stroke="#000" stroke-width="3"/>
 <path d="m404.78 550.74 129.12 165.6" fill="none" stroke="#000" stroke-width="3"/>
 <path d="m948.57 796.43-178.57 65" fill="none" stroke="#000" stroke-width="3"/>
 <path d="m1237.1 445c1.4286-18.571 99.286-55 99.286-55" fill="none" stroke="#000" stroke-width="3"/>
 <path d="m1310.7 400 197.86 77.857" fill="none" stroke="#000" stroke-width="3"/>
 <path d="m1352.9 147.86c-1.4285 5-63.571 240.71-63.571 240.71" fill="none" stroke="#000" stroke-width="3"/>
 <path d="m1296.4 163.57c20 9.2857 90.714-37.143 90.714-37.143" fill="none" stroke="#000" stroke-width="3"/>
 <path d="m1070 457.86c-3.5714 0-87.857 57.857-87.857 57.857-7.8778 4.6719-6.9574 12.268 5 7.8571l357.86-157.86" fill="none" stroke="#000" stroke-width="3"/>
 <path d="m1089.3 308.57c4.2857 2.8572 119.29 54.286 119.29 54.286" fill="none" stroke="#000" stroke-width="3"/>
 <path d="m724.7 693.03c-7.7643-8.335 2.425-28.695 10.693-37.498 29.124 11.177 292.94 134.35 292.94 134.35l411.13 145.46" fill="none" stroke="#000" stroke-width="2"/>
 <path d="m1425.3 952.51c-5.0507-26.264 122.23-76.772 122.23-76.772" fill="none" stroke="#000" stroke-width="2"/>
 <path d="m1524.3 883.82-355.57-166.68" fill="none" stroke="#000" stroke-width="2"/>
 <path d="m1192 703s-38.386 24.244-41.416 20.203-275.77-125.26-275.77-125.26 30.385-6.4793 52.528-16.162c8.2858-8.847-2.7854-12.663-17.173-22.223-13.799-9.1696-105.06-38.386-105.06-38.386" fill="none" stroke="#000" stroke-width="2"/>
 <path d="m25.254 331.27c-4.0406-23.234 116.17-66.67 116.17-66.67" fill="none" stroke="#000" stroke-width="2"/>
 <path d="m34.345 313.09 306.08 169.71s206.07 82.327 266.68 114.15c-11.534 5.3912-18.153 9.0493-32.815 26.703" fill="none" stroke="#000" stroke-width="2"/>
 <path d="m721.25 538.35c-39.814 10.785-82.486 31.57-119.44 54.497" fill="none" stroke="#000" stroke-width="3"/>
 <path d="m539.42 408.04c-5.0508 1.0102-59.599 14.142-59.599 14.142s253.55 116.17 257.59 113.14 67.428-14.142 67.428-14.142" fill="none" stroke="#000" stroke-width="2"/>
 <path d="m494.97 417.13-363.65-147.48" fill="none" stroke="#000" stroke-width="2"/>
 <path d="m667.36 852.85c-37.887 26.103-129.97 72.486-161.99 57.405" fill="none" stroke="#000" stroke-width="2"/>
 <path d="m409.46 838.49c53.876-25.448 180.69 92.507 92.495 116.12" fill="none" stroke="#000" stroke-width="3"/>
 <path d="m522.52 734.02c66.315-5.1015 149.09 51.095 146.2 107.37-1.9993 39.548-7.2654 72.456-17.367 85.588" fill="none" stroke="#000" stroke-width="2"/>
 <path d="m751.55 847.46c0-5.0508 2.612-138.46 2.612-138.46" fill="none" stroke="#000" stroke-width="2"/>
 <path d="m738.3 891.8c-5.4271-13.009 14.928-32.693 31.387-29.785" fill="none" stroke="#000" stroke-width="3"/>
 <path d="m861.86 603.47c-39.814 10.785-82.486 31.57-119.44 54.497" fill="none" stroke="#000" stroke-width="3"/>
 <path d="m597.87 601.41 131.83 60.282" fill="none" stroke="#000" stroke-width="3"/>
 <path d="m602.34 621.93 113.57 51.443" fill="none" stroke="#000"/>
 <path d="m532.91 724.45c51.76-6.8606 117.67 42.374 137.47 53.644 22.596 1.9788 44.199 4.0604 69.913-11.654 1.7232-24.048 1.4037-24.018 2.1341-64.783" fill="none" stroke="#000" stroke-width="3"/>
 <path d="m548.14 715.05c18.68-32.706 43.167-19.735 89.121-6.2119 46.497 13.682 72.748 44.301 68.455 61.443" fill="none" stroke="#000"/>
 <path d="m653.51 682.45-42.706 17.727" fill="none" stroke="#000"/>
 <path d="m595.88 635.04-2.2728 60.109" fill="none" stroke="#000"/>
 <path d="m581.51 665.81-0.41842 28.16" fill="none" stroke="#000"/>
 <path d="m648.56 589.83c12.842-6.1104 37.249-14.573 52.842-20.75 6.9621-2.6269 36.171-1.2833 22.872 10.057-19.137 7.7272-39.473 19.488-62.28 26.819-37.071-1.046-18.485-15.786-13.434-16.125z" fill="#c8c8c8" fill-rule="evenodd" stroke="#000" stroke-width="2"/>
 <path d="m913.39 884.46c-18.214 8.5714-35 60-14.464 70.714 23.731 5.0512 77.544-22.291 94.821-46.607 14.464-20.357 17.143-46.25-4e-5 -46.786-18.214 5.3571-36.807 10.3-53.036 10-10.608-0.19618-18.393 6.7857-27.321 12.679z" fill="none" stroke="#000" stroke-width="3"/>
 <path d="m564.73 954.86c-28.326 11.659-44.286 69.351-15.477 71.451 37.143-1.4359 65.484-32.872 83.362-46.653 26.317-20.285 12.842-48.831 12.842-48.831" fill="none" stroke="#000" stroke-width="3"/>
 <path d="m907.06 777.81c-8.2174 11.703-25.85 18.925-32.929 27.158 4.2857 10 7.128 14.617 7.128 14.617" fill="none" stroke="#000" stroke-width="3"/>
 <path d="m839.78 826.14c0.15845-17.98 27.995-22.605 36.148-24.018" fill="none" stroke="#000" stroke-width="3"/>
 <path d="m648.7 950.08c-32.078 31.154-81.99 70.213-114.01 60.183" fill="none" stroke="#000" stroke-width="3"/>
 <path d="m1003.5 888.03c-30.563 25.345-98.657 61.374-113.76 44.021" fill="none" stroke="#000" stroke-width="3"/>
 <path d="m860.65 842.15c1.2627 2.0203 41.921 52.023 41.921 52.023" fill="none" stroke="#000" stroke-width="3"/>
 <path d="m889.69 832.05c1.2627 3.283 29.294 47.982 29.294 47.982" fill="none" stroke="#000" stroke-width="3"/>
 <path d="m764.69 712.1c0.25254 6.9448 0.12627 33.082 0.37881 39.175 0.25254 5.0823 2.9042 4.7667 7.1973 3.7565 12.374-4.0406 34.093-16.92 43.184-20.203" fill="#c8c8c8" fill-rule="evenodd" stroke="#000" stroke-width="3"/>
 <path d="m710.74 619.27c12.842-6.1104 35.228-18.614 50.822-24.791 6.9621-2.6269 37.686-0.77821 24.387 10.562-19.137 7.7272-38.968 23.023-61.775 30.354-37.071-1.046-18.485-15.786-13.434-16.125z" fill="#c8c8c8" fill-rule="evenodd" stroke="#000" stroke-width="2"/>
 <path d="m823.64 841.79c13.431-15.828 23.629-20.609 31.097-10.886" fill="none" stroke="#000" stroke-width="3"/>
 <path d="m408.73 920.93c23.731 5.0512 58.804 9.4462 70.83-4.9384 13.507-16.155-12.404-54.331-29.547-54.867-15.867 3.5261-39.84 34.256-41.283 59.805z" fill="none" stroke="#000" stroke-width="3"/>
 <path d="m474.12 921.63c46.539 17.172 39.063-16.018 3.283-36.113" fill="none" stroke="#000" stroke-width="3"/>
 <path d="m425.02 878.05c-7.6481-9.5969-8.0011-29.655 17.93-14.647" fill="none" stroke="#000" stroke-width="3"/>
 <path d="m811.61 522.5c8.0357 0.17857 83.393 3.0357 83.393 3.0357l39.107 14.464-72.321 0.35714-50.179-17.857z" fill="#c8c8c8" fill-rule="evenodd" stroke="#000" stroke-width="2"/>
 <path d="m883.39 547.14c1.0714 0.17857 56.288-4.052 63.036-0.89285 56.071 26.25 39.821 42.857 32.143 58.75-9.6428-2.6786-50.893-23.393-50.893-23.393s16.429-5.5357-23.929-25.357c-13.21-6.5148-15.363-5.4282-20.357-9.1071z" fill="#c8c8c8" fill-rule="evenodd" stroke="#000" stroke-width="2"/>
 <path d="m597.86 601.07c-27.755 16.649-51.902 69.764-64.643 123.57 55.595-6.4286 114.76 42.5 136.79 53.571 32.143 5.4762 51.786-1.5476 69.643-11.429l2.8572-64.286-14.643-7.8571c-5.2381-2.2619-5.8333-6.3095-6.0714-12.143 0 0 2.1429-8.9286 4.6429-13.571 1.4467-2.6867 3.5714-7.1428 3.5714-7.1428l-132.14-60.714z" fill="#c8c8c8" fill-opacity=".6215" fill-rule="evenodd" stroke="#000" stroke-width="3"/>
</svg>
